# xmcd
#
# Track frame offsets:
#	150
#	16275
#	46229
#	79986
#
# Disc length: 1369 seconds
#
# Revision: 2
# Processed by: cddbd v1.5.2PL0 Copyright (c) Steve Scherf et al.
# Submitted via: EasyCDDAExtractor 10.2.0.1
#
DISCID=26055704
DTITLE=C.J. Stone - Infinity CDM
DYEAR=2000
DGENRE=Techno
TTITLE0=Infinity (Single Mix)
TTITLE1=Infinity (Original Mix)
TTITLE2=Infinity (C.J. Stone's Club Mix)
TTITLE3=In your Mind (Edit)
EXTD=YEAR: 2000 ID3G: 18
EXTT0=
EXTT1=
EXTT2=
EXTT3=
PLAYORDER=
